<?xml version="1.0" encoding="UTF-8"?>
<svg id="Layer_1" data-name="Layer 1" xmlns="http://www.w3.org/2000/svg" viewBox="0 0 796.23 910.71">
  <defs>
    <style>
      .cls-1 {
        fill: #030303;
      }

      .cls-2 {
        fill: #212020;
      }

      .cls-3 {
        fill: #1f1f1f;
      }
    </style>
  </defs>
  <path class="cls-1" d="m776.2,867.6c-.5-.48-.99-.99-1.47-1.47v-54.35h-13.25l-.8.24-.84-.06c-1.38-3.18-3.93-6.35-3.95-9.53-.24-52.06-.17-104.11-.17-156.17,0-56.08-.07-112.19.15-168.27,0-3.41,2.14-6.83,3.28-10.24.19-.56.22-1.12.09-1.69-.61-.09-1.3-.02-1.82-.28-44.67-21.83-90.8-39.85-138.41-54.17-7.41-2.23-14.56-5.34-22.63-8.34,11.02-8.06,20.66-11.88,32.74-6.24,13.9,6.5,28.48,11.58,42.77,17.29.65-.13,1.32-.26,1.99-.39v-76.21c-25.09-8.92-49.87-17.46-74.46-26.58-9.6-3.56-18.73-8.38-28.07-12.62-.48-.07-.97-.19-1.43-.3-1.36-1.95-3.89-3.91-3.89-5.86-.2-79.3-.17-158.59-.17-238.63,1.64,1.25,2.53,1.92,3.44,2.61-1.4-2.55-2.22-5.9-4.32-7.5-3-2.25-7-3.15-10.52-4.77-31.66-14.5-63.25-29.15-95.06-43.35-2.9-1.28-7.86-.8-10.63.87-14.43,8.8-28.31,18.5-42.7,27.42-8.23,5.1-13.46,11.11-11.48,21.5,1.66,8.71-2.51,14-9.81,18.63-37.79,24.01-75.7,47.86-112.78,72.93-50.07,33.86-99.38,68.85-149.19,103.12-9.33,6.42-14.05,13.55-13.22,25.72,1.3,18.82.24,37.79.43,56.68.04,4.99-1.02,8.23-5.81,11.17-9.25,5.66-17.74,12.56-26.54,18.95.17,3.07.48,6.16.48,9.25.02,141.15.04,282.3-.07,423.45,0,3.41-1.21,6.81-1.86,10.22-1.23.07-2.48.13-3.7.2-.2,21.7-.41,43.41-.61,65.11-.45.5-.87.99-1.32,1.47H0v43.28c265.42,0,530.82,0,796.23-.02v-43.09h-20.03ZM106.14,521.53c4.36,12.94,2.7,19.06-6.96,24.57-1.12-9.57-6.18-19.66,6.96-24.57Zm.47-38.83c3.57,15.99,2.57,19.45-7.48,22.49-.67-8.9-2.94-17.65,7.48-22.49Zm.71,164.25v25.32h-9.68c-2.35-23.66-.34-24.22,9.68-25.32Zm-.67-84.73c3.76,18.13,2.48,22.67-9.07,26.99,4-9.6-5.14-21.56,9.07-26.99Zm-7.67-123.91c.19-8.25-3.48-17.39,9.57-20.12-2.9,7.13,5.27,18.19-9.57,20.12Zm9.36-54.76c-1.97,7.67,4.56,17.85-9.34,19.12-.19-7.61-2.89-15.77,9.34-19.12Zm-3.56,66.6c.97.52,1.94,1.04,2.92,1.56.06,6.05,3.39,13.7-11.67,14.43,3.67-6.7,6.2-11.34,8.75-15.99Zm3.22,325.82c-.13,6.7-4.23,8.99-11.22,7.95,0-11.65.07-22.45-.04-33.24-.07-7.28,4.47-9.7,11.34-11.67,0,12.97.17,24.98-.07,36.97Zm-.37-53.24c-.22,2.68-5.25,4.97-8.06,7.45-.91-.65-1.82-1.28-2.74-1.94,0-10.37-.69-20.81.39-31.07.35-3.35,5.32-6.2,8.19-9.27.86.58,1.73,1.17,2.61,1.75,0,11.04.54,22.11-.39,33.08Zm-8.25-93.26c-2.64-20.61-2.23-21.96,7.67-25.28,3.22,20.14,2.14,23.71-7.67,25.28ZM362.02,185.18q4.02,19.69-14.82,27.29c-3.35-19.58-2.74-20.72,14.82-27.29Zm.6-31.59v17.18c-5.34,2.9-11.02,5.99-16.94,9.21-3.42-17.07-.82-21,16.94-26.39Zm-.47-34.14c2.27,19.02-1.94,25.65-16.75,27.79-6.03-15.71,5.1-21.46,16.75-27.79Zm-42.42,107.66c-3.44-15.75-2.33-20.77,11.58-25.65-.8,10.59,4.95,23.19-11.58,25.65Zm-.74-33.23c-1.77-17.03-.97-18.74,11.93-23.92,1.28,20.72.6,22.02-11.93,23.92Zm9.85-55.08c1.94,18.39,1.25,19.79-11.3,23.45-3.03-15.52-.99-19.79,11.3-23.45Zm-47.39,109.45c-1.15-20.27,4.24-27.47,22.91-31.42,1.73,21.24,5.17,17.09-22.91,31.42Zm21.57-93.14c1.15,19.36,1.02,19.53-20.49,29.56-4.06-15.86.02-21.91,20.49-29.56Zm-1.08,31.81c4.39,16.12,1.68,19.81-20.07,27.21-2.2-15.67-.61-17.81,20.07-27.21Zm-86,16.36c3.76,10.57,2.33,14.13-8.32,21.78-1.06-2.01-1.82-4.3-3.28-6.01-1.56-1.84-3.76-3.13-6.31-5.16,6.74-3.98,12.29-7.28,17.91-10.61Zm-9.79,91.28c1.45,20.18-2.27,25.22-23.44,32.46-.82-19.43,1.75-23.08,23.44-32.46Zm-55.13,271.19v-23.17c5.96-2.18,12.27-4.49,19.49-7.11,2.1,23.9-2.81,31.12-19.49,30.28Zm17.87-71.74c1.64,22.28.43,24.14-17.2,27.46-3.26-20.38-1.01-24.09,17.2-27.46Zm-17.93-12.43v-18.54c5.7-2.81,11.43-5.64,17.35-8.54,3,17.7,1.3,20.35-17.35,27.08Zm6.66-193.05c-3.46-15.54-1.32-22.08,8.99-25.67,5.94,16.77,2.29,22.73-8.99,25.67Zm1.4-50.89c1.02-1.45,3.65-1.75,6.33-2.89.13,3.13.97,5.75.19,7.76-1.3,3.29-3.65,6.16-5.55,9.21-1.77-1.6-5.16-3.41-4.99-4.78.39-3.24,2.08-6.57,4.02-9.31Zm8.41,79.05c5.62,15.62,3.69,19.1-15.13,28.05-10.63-18.35,7.22-20.07,15.13-28.05Zm-17.91,59.86c-1.32-14.13,3.82-20.59,18.61-24.01,2.92,12.79-1.84,19.1-18.61,24.01Zm-14.97-38.87c3.93,16.59.34,22.88-14.48,25.52-5.1-14.13,3.5-20.49,14.48-25.52Zm1.06,299.55c.11,1.97.24,3.2.24,4.41.02,6.16.02,12.34.02,19.41-5.21,1.66-10.41,3.31-15.95,5.08-1.77-28.07-2.75-23.99,15.69-28.91Zm-16.51-12.49v-25.8c5.44-1.81,10.59-3.54,16.47-5.51v24.63c-5.01,2.03-10,4.06-16.47,6.68Zm1.66-44.8c-4.84-17.87-1.12-25.11,15.11-28.33v21.59c-5.25,2.33-10.14,4.52-15.11,6.74Zm14.65-177.35q1.32,18.65-14.91,25.84c-2.59-19.12-4.41-17.29,14.91-25.84Zm-.5-33.1c2.42,14.98.34,18.06-15.28,21.87q-.95-13.14,15.28-21.87Zm-14.26,87.26c-2.98-11.02,1.08-16.79,14.17-20.44,6.01,14.84-6.37,15.78-14.17,20.44Zm-.58,38.62c-1.79-20.29-4.13-16.66,15.34-24.48,1.47,18.5-.41,21.5-15.34,24.48Zm15.17,13.35v21.89c-4.78,2.12-9.72,4.32-14.8,6.57-4-19.49-3.39-20.66,14.8-28.46Zm-15.51,181.36c1.08-5.17,8.75-8.99,13.44-13.42.89.65,1.79,1.3,2.7,1.95,0,12.21.2,24.44-.22,36.65-.07,1.88-2.77,4.47-4.84,5.32-3.22,1.34-6.94,1.49-11.71,2.36,0-11.5-1.49-22.56.63-32.87Zm17.39,86.57c-.45.52-.89,1.04-1.34,1.56-5.1,1.58-10.2,3.15-16.66,5.14,0-14.89-.89-28.65.32-42.22.76-8.49,9.16-9.68,16.36-10.63.48.56.97,1.12,1.45,1.66-.04,14.84-.07,29.65-.13,44.49Zm-1.92-479.18c2.72-7.61-3.95-16.55,8.23-20.51-1.47,7.72,3.98,15.91-8.23,20.51Zm.11-29.8c2.74-7.61-4.26-16.03,6.76-19.75,2.77,7.5,4.5,14.22-6.76,19.75Zm31.94,118.27c7.72,12.86.35,22.39-17.44,27.47-2.81-16.51-.37-20.51,17.44-27.47Zm1.6,33.91c.61,17.05,4.99,12.4-18.93,23.36-2.46-13.35,1.38-18.09,18.93-23.36Zm1.43,159.89c3.87,23.88,1.51,27.83-18.67,31.05-3.46-22.76-.48-27.7,18.67-31.05Zm-19.47,71.01q-.34-20.4,19.9-26.36c1.95,26.08-.8,30.38-19.6,30.9-.09-1.51-.26-3.02-.3-4.54Zm19.97,17.37v37.79c-6.22,2.18-12.4,4.34-19.47,6.81v-39.31c6.35-1.71,12.58-3.41,19.47-5.29Zm1.71,97.37c-.45.5-.89.99-1.34,1.49-6.18,2.07-12.34,4.13-18.52,6.2-.37.35-.74.71-1.14,1.04-.07-1.06-.17-2.12-.24-3.18.07-14.8.13-29.6.2-44.39.43-.52.86-1.02,1.27-1.53,6.16-1.95,12.3-3.89,18.47-5.83.5.56,1.01,1.12,1.51,1.68-.07,14.84-.15,29.69-.2,44.52Zm18.32-544.91c3.69,11.39-.61,17.53-11,19.92-3.8-14.72-1.99-17.93,11-19.92Zm3.39,25.93c4.04,18.74,3.07,20.85-13.22,27.55-1.45-21.05.06-24.14,13.22-27.55Zm12.69,83.06c3.18,18.11,5.32,16.94-23.73,30.08-6.11-21.82,14.37-20.9,23.73-30.08Zm-9.33,88.71c-4.8,1.51-9.12,4.47-14.56,7.22-1.41-15.67,2.36-19.49,24.74-26.21,3.2,9.85-.26,15.86-10.18,18.99Zm10.7,121.27c-.17,2.16-1.99,5.16-3.87,6.07-6.14,2.96-12.66,5.14-19.75,7.89-1.4-24.22,3.09-30.47,23.81-33.36,0,6.53.34,12.99-.19,19.4Zm-25.26-73.69v-18.09c7.35-3.52,14.8-7.09,22.67-10.85,1.15,21.52,6.12,15.28-22.67,28.94Zm24.68-99.96c2.33,19.9-3.5,27.23-24.48,30.81-2.77-18.82,1.69-24.46,24.48-30.81Zm.47,111.53v21.05c-8.21,4.11-16.12,8.08-24.14,12.1-5.53-21,3.26-32.89,24.14-33.15Zm-23.92,111.93c0-16.01,6.89-22.56,23.6-22.39.71,29.89,5.75,21.95-23.6,32.65v-10.26Zm25.33,21.82c2.83,24.4,1.02,26.86-22.37,31.23-4.04-21.5-3.74-21.93,22.37-31.23Zm-23.25,50.76c8.25-2.42,16.42-4.84,25.85-7.61,0,13.27.11,24.96-.15,36.63-.04,1.54-1.77,3.91-3.22,4.37-7.09,2.27-14.35,4.04-22.49,6.24v-39.63Zm28.03,88.94c-8.79,4.17-17.57,8.32-26.36,12.49-.47-.52-.93-1.04-1.41-1.56.04-15.49.07-30.97.11-46.46.43-.61.86-1.25,1.28-1.86,8.02-3.18,16.03-6.38,24.05-9.57.5-.39,1.02-.78,1.53-1.17.2.41.41.8.61,1.21.24.58.47,1.15.69,1.75-.17,15.06-.34,30.12-.5,45.18Zm-4.34-495.43c-7.18-11.65-4.99-19.36,6.74-23.62,3,17.01,2.12,20.07-6.74,23.62Zm22.9-78.14c11.28,3.74,22.3,7.04,33.1-.06,1.25-.02,2.48-.06,3.72-.07-.34,20.98-.67,41.96-1.02,62.92-.02.11-.56.2-.86.3q-12.88.48-12.88-11.76c0-4.93-.41-9.92.13-14.8.5-4.49,2.03-8.84,3.33-14.24-7.2-1.79-16.18-3.98-25.52-6.29v-15.99Zm84.02,105c-.13.65-.26,1.28-.39,1.92-20.07-4.41-40.13-8.84-61-13.44v486.46c-5.31-1.28-9.46-2.29-13.61-3.29l-1.4-1.4c-.15-2.16-.41-4.3-.41-6.46-.02-164.16-.02-328.29,0-492.45,0-1.84.17-3.7.26-5.55.52-.52,1.02-1.02,1.54-1.54.63.04,1.27.07,1.9.11.67.47,1.32.93,1.99,1.38,6.74,2.51,14.07,4.08,20.1,7.78,7.93,4.9,14.63,3.46,21.85-.61,31.49-17.78,63.01-35.52,94.54-53.2,2.51-1.41,5.3-2.35,8.54-3.76-.58,9.81-3,16.4-12.79,21.09-30.53,14.61-60.37,30.66-91.06,46.44,10.07,5.57,19.99,11.06,29.91,16.53Zm100.01,508.24c-10.65-2.14-20.36-4.1-30.08-6.05-.48-.07-.95-.2-1.41-.37-1.28-1.41-3.24-2.62-3.7-4.26-.63-2.31-.19-4.91-.19-7.39,0-176.05-.02-352.1.13-528.13.02-3.72,2.18-7.43,3.33-11.15.78-.48,1.54-.99,2.31-1.47,9.27,4.15,18.54,8.32,27.79,12.49.45.69.89,1.36,1.32,2.05.13,2.48.37,4.95.37,7.41.06,175.59.09,351.17.13,526.74v10.14ZM493.27,66.18c0,242.48.02,484.99-.15,727.47,0,3.69-2.23,7.37-3.43,11.06-3.18.52-6.37,1.02-9.57,1.54-8.04-1.34-16.06-2.66-24.11-3.98-.47-.43-.93-.86-1.38-1.3-.15-2.46-.43-4.91-.43-7.37-.02-247.29-.02-494.56-.02-741.82,0-2.18.19-4.34.28-6.5,1.81-.02,3.61-.06,5.42-.07,9.29,4.91,18.6,9.83,27.9,14.76.37.74.76,1.49,1.14,2.23l.6-.19c.95-.67,1.9-1.36,3.74-2.66v6.83Zm42.7,17.01c0,237.4,0,474.81-.02,712.21,0,2.48-.17,4.95-.28,7.43-.48.52-.99,1.04-1.47,1.54-6.81.02-13.61.02-20.42.02l-.8.28-.86-.07c-1.3-1.38-3.29-2.57-3.76-4.17-.67-2.31-.2-4.91-.2-7.41,0-238.76-.02-477.54.15-716.32,0-3.67,2.27-7.33,3.48-11.02l.58.26c.3-.63.58-1.27.87-1.9.87.5,1.75,1.01,2.62,1.53,5.68,2.62,11.47,5.04,16.96,8,1.51.82,2.42,3.16,3.05,5.01.48,1.38.09,3.07.09,4.62Zm188.84,385.12c20.35,6.31,20.74,6.89,19.25,29.11-20.72-1.27-22.11-3.41-19.25-29.11Zm-.61,44.17c21.96,4.49,23.66,7.09,21.61,33.28-8.49.34-18.71-.78-21.98-7.72-3.16-6.74-.02-16.42.37-25.56Zm-39.57-62.56c7.22,3.46,16.53,5.21,20.9,10.81,3.72,4.77,1.75,13.98,2.42,23.04-8.9-3.95-17.22-6.14-23.42-11.02-3.05-2.42-2.49-9.79-2.87-14.97-.15-2.14,1.58-4.39,2.96-7.87Zm-5.23,91.88c8,3.57,14.95,6.29,21.46,9.79,2.1,1.12,4.26,4.24,4.41,6.57.52,8.58.2,17.22.2,28.14-8.86-3.16-16.77-5.83-24.5-8.93-.99-.39-1.49-3.03-1.51-4.63-.13-9.87-.07-19.73-.07-30.94Zm-20.07,222.72c-6.65-1.47-13.31-2.96-20.38-4.52v-13.12c6.24,1.71,12.68,2.46,17.91,5.36,2.72,1.53,3.35,6.83,4.91,10.44-.82.61-1.62,1.23-2.44,1.84Zm-20.31-69.45c.28-.61.58-1.25.86-1.88.84.5,1.69,1.02,2.53,1.53,5.01,1.71,10.14,3.15,14.95,5.3,1.58.73,3.26,3.28,3.29,5.03.28,11.95.15,23.92.15,37.34-7.39-1.84-13.89-3.48-20.38-5.1-.45-.54-.87-1.06-1.32-1.6-.02-13.53-.06-27.06-.07-40.62Zm23.6-14.24c-8.39-1.82-15.88-3.46-23.9-5.21v-38.62c7.39,2.2,14.44,4.02,21.26,6.51,1.34.48,2.48,3.43,2.53,5.27.24,10.14.11,20.31.11,32.05Zm-20.74-63.64c-1.56-.56-3.18-3.39-3.26-5.23-.35-8.6-.15-17.24-.15-28.16,8.02,2.83,18.99,3.43,21.29,8.19,4.06,8.36,2.81,19.28,4.02,31.55-8.77-2.46-15.47-4.06-21.91-6.35Zm22.34-48.34c-6.91-1.97-12.73-3.39-18.35-5.34-4.9-1.71-7.89-4.8-7.54-10.81.48-8.26.11-16.57.11-25.89,9.23,3.65,17.52,6.92,25.78,10.2v31.85Zm.3-53.52c-8.62-2.68-16.34-4.9-23.9-7.59-1.12-.41-2.03-2.98-2.07-4.58-.2-8.56-.11-17.12-.11-26.75,8.38,3.11,15.93,5.64,23.19,8.9,1.56.69,2.66,3.96,2.75,6.12.34,7.33.13,14.71.13,23.9Zm0-53.37c-21.54-2.61-27.36-9.38-25.46-29.76,7.59,2.96,14.46,5.27,20.92,8.41,2.07,1.01,4.02,4.13,4.34,6.53.69,4.82.2,9.81.2,14.82Zm13.23,313.74v-18.89c8.6,2.79,16.92,4,23.3,8.19,3.03,1.99,2.35,9.64,3.8,16.94-10.61-2.44-18.87-4.34-27.1-6.24Zm27.29-22.88c-8.21-2.03-16.21-3.74-23.99-6.16-1.6-.5-3.31-3.61-3.35-5.55-.32-12.02-.17-24.07-.17-37.06,9.85,3.13,18.39,5.83,27.51,8.71v40.06Zm.41-58.75c-8.15-2.44-15.36-4.3-22.28-6.87-1.68-.63-3.5-3.56-3.56-5.47-.35-10.42-.17-20.85-.17-32.35,8.1,2.77,15.3,4.9,22.17,7.8,1.79.76,3.57,3.85,3.67,5.94.39,9.55.17,19.14.17,30.96Zm-1.94-55.28q-26.45-7.95-23.38-42.18c8.36,3.65,20.05,5.08,23.03,10.93,4.28,8.45,2.23,20.12,2.9,30.64-1.95.48-2.31.69-2.55.61Zm-21.78-113.79v-30.56c8.49,3.52,19.27,4.69,23.27,10.54,4.28,6.25,2.18,16.88,3.03,27.57-9.92-2.85-17.91-5.14-26.3-7.54Zm40.78,49.62c-.58-4.21,1.62-8.8,2.57-13.25,14.69.11,19.47,4.56,19.47,18.24v21.37c-6.91-2.53-12.66-4.08-17.89-6.7-9.07-4.54-3.24-13.05-4.15-19.66Zm22.04,129.07c-1.66.2-2.64.63-3.44.37q-18.91-5.88-18.91-25.72v-15.17c6.78,2.29,12.56,3.87,18,6.27,1.9.84,4.08,3.63,4.15,5.64.45,9.51.2,19.08.2,28.61Zm-22.23-76.73c.45-4.45,1.75-8.8,2.81-13.87,6.12,2.01,12.47,4.08,19.1,6.25v33.15c-6.78-1.58-13.18-2.62-19.21-4.78-1.56-.56-2.48-4.47-2.7-6.94-.43-4.58-.47-9.25,0-13.81Zm-.11,88.66c7.99,2.01,15.15,3.82,22.32,5.6.48.52.95,1.04,1.43,1.58.02,12.99.02,26,.04,39-2.35.5-4.71.99-7.05,1.49-2.61-.56-5.17-1.36-7.8-1.66-5.57-.6-8.8-3.52-8.9-9.1-.17-12.21-.04-24.44-.04-36.91Zm23.58,73.99c-22.86.63-25.05-1.32-22.9-19.77,25.93,3.91,24.53,1.58,22.9,19.77Z"/>
  <path class="cls-3" d="m569.92,298.24c-1.35-1.96-3.88-3.91-3.89-5.87-.2-79.29-.17-158.58-.17-238.62,1.64,1.24,2.54,1.93,3.44,2.61.19,11.13.39,22.27.58,33.4.03,21.8.06,43.6.09,65.4.07,18.01.14,36.01.2,54.02.02,29.07.05,58.14.07,87.2-.11.62-.22,1.24-.32,1.87Z"/>
  <path class="cls-2" d="m488.96,765.44c0-34.03-.01-68.06-.02-102.1.01-.7.02-1.4.04-2.09,0-98.56,0-197.13,0-295.69.07-78.86.13-157.72.2-236.58-.08-1.27-.15-2.53-.23-3.8.19-21.06.38-42.11.57-63.17.96-.68,1.92-1.37,3.74-2.67,0,2.75,0,4.79,0,6.83,0,242.49.02,484.99-.15,727.48,0,3.69-2.23,7.38-3.41,11.06-.25-13.09-.5-26.18-.75-39.27Z"/>
  <path class="cls-3" d="m511.79,65.68c.13,3.71.36,7.42.36,11.12.02,238.89.01,477.78.02,716.67,0,3.09.13,6.19.2,9.28-.08.61-.17,1.22-.25,1.83-1.31-1.37-3.3-2.55-3.76-4.17-.66-2.3-.2-4.91-.2-7.39,0-238.77-.02-477.55.15-716.32,0-3.67,2.27-7.35,3.48-11.02Z"/>
  <path class="cls-2" d="m385.47,784.15c-1.28-1.41-3.23-2.62-3.69-4.26-.65-2.3-.2-4.91-.2-7.39,0-176.04-.02-352.09.14-528.13,0-3.72,2.17-7.43,3.33-11.14.11,3.72.32,7.43.32,11.15.04,179.93.07,359.86.1,539.78Z"/>
  <path class="cls-2" d="m759.16,467.76c.12,3.71.35,7.42.35,11.14.02,107.31.01,214.62.03,321.93,0,3.72.2,7.43.3,11.15-1.37-3.18-3.92-6.35-3.94-9.53-.25-52.06-.18-104.12-.18-156.18,0-56.09-.06-112.18.15-168.26.01-3.42,2.14-6.83,3.29-10.24Z"/>
</svg>