<svg xmlns="http://www.w3.org/2000/svg" xml:space="preserve" id="Layer_1" x="0" y="0" style="enable-background:new 0 0 1080 1080" version="1.1" viewBox="0 0 1080 1080"><style type="text/css">.st0{fill:#1565c0}.st1{fill:#ffea0c}.st2{stroke:#1565c0;stroke-miterlimit:10}.st2,.st3{fill:#fff}.st4{fill:#1565c0;stroke:#1565c0;stroke-miterlimit:10}.st5{fill:#ffea00}</style><g><g><path d="M-940.7 1524s99.5 106 273.7 100.3c0 0 6.6 104.8-18.1 198.9l28.8 88 55.9-65.8c3.2-98.1-.5-147.1-23-223.6 0 0 189.9-19.7 281.1-155.4 0 0 165.2-211.3-64.1-225.2 0 0-92.1-4.9-212.1 46.9l-22-9.9s195.5-93.7 331.9-41.9c0 0 126.6 51 37.8 209.6 0 0-51.8 78.9-97 134.8 0 0-72.3 104.4-133.2 277.8 0 0-89.6 228.5-369.1 291.8 0 0 134-402-103.6-590.2l33-36.1z" class="st0"/><path d="M-887.7 1783.8s-247.8 32.1-129.5-187.4c0 0 102.3-166.5 331.7-278.7l-17.3-9.9s-189.9 83.8-330.5 283.6c0 0-146.7 249.1 152.9 236.7l-7.3-44.3z" class="st0"/><path d="m-1007.3 1526.1 33.7-38.2s-207.6-218.2 74.8-231.8c0 0 115.9-3.7 283.6 71.5 0 0 151.7 67.2 241.1 151.7l12.9-14.2s-148-135-345.9-192.4c0 0-171.4-59.2-292.2-19.7 0 0-178.8 50.5-8 273.1zM-303.7 1526.1s106 110.6 68.2 205.9c0 0-27.9 88.8-200.6 76.4l18.9-46.9s106.9 9 152.9-51c0 0 36.2-74-49.3-171l9.9-13.4zM-644.8 1600.4s32.1 108.7 29 225.4l-35.8 54.8-14.8-62.7s26.5-112.8 21.6-217.5z" class="st0"/><ellipse cx="-1077.3" cy="1180.2" class="st0" rx="68.1" ry="69.7"/><ellipse cx="-227.3" cy="1175.3" class="st0" rx="68.1" ry="69.7"/></g><g><g><circle cx="-652.9" cy="1497.5" r="101.7" class="st0"/><circle cx="-654.1" cy="1497.5" r="66.4" class="st0"/></g></g></g><g><g><path d="M1479.7 1576.1s98.4 104.9 270.9 99.2c0 0 6.6 103.7-17.9 196.9l28.5 87 55.3-65.1c3.2-97.1-.5-145.6-22.8-221.3 0 0 187.9-19.5 278.2-153.8 0 0 163.5-209.1-63.5-222.9 0 0-91.1-4.9-209.9 46.4l-21.8-9.8s193.4-92.7 328.5-41.5c0 0 125.3 50.4 37.4 207.4 0 0-51.3 78.1-96 133.4 0 0-68.8 113.1-109.5 290.4-11.5 50.1 10.2 171.2.2 192.1-20.2 42.5-84.1 58.3-193.1 58.8-52.3.2-147.2-19.6-167.5-58.8-27.3-52.7 105.5-316.6-129.6-502.9l32.6-35.5z" class="st0"/><path d="M1532.2 1833.2s-245.3 31.7-128.1-185.5c0 0 101.3-164.7 328.2-275.8l-17.1-9.8s-187.9 83-327 280.7c0 0-145.2 246.5 151.3 234.3l-7.3-43.9z" class="st0"/><path d="m1413.8 1578.1 33.4-37.8s-205.4-216 74-229.4c0 0 114.7-3.7 280.7 70.8 0 0 150.1 66.5 238.6 150.1l12.8-14s-146.4-133.6-342.3-190.4c0 0-169.6-58.6-289.2-19.5 0 0-177 50-8 270.2zM2110.2 1578.1s104.9 109.4 67.5 203.8c0 0-27.7 87.9-198.5 75.7l18.7-46.4s105.8 8.9 151.3-50.4c0 0 35.8-73.2-48.8-169.2l9.8-13.5zM1772.6 1651.7s31.7 107.6 28.7 223.1l-35.4 54.2-14.6-62.1c-.1 0 26.2-111.5 21.3-215.2z" class="st0"/><ellipse cx="1344.6" cy="1235.9" class="st0" rx="67.4" ry="68.9"/><ellipse cx="2185.8" cy="1231" class="st0" rx="67.4" ry="68.9"/><path d="M1915 1907.2" class="st0"/></g><g><g><circle cx="1764.6" cy="1549.9" r="100.6" class="st0"/><circle cx="1763.4" cy="1549.9" r="65.7" class="st0"/></g></g></g><g><g><path d="M260.8 1576.1s98.4 104.9 270.9 99.2c0 0 6.6 103.7-17.9 196.9l28.5 87 55.3-65.1c3.2-97.1-.5-145.6-22.8-221.3 0 0 187.9-19.5 278.2-153.8 0 0 163.5-209.1-63.5-222.9 0 0-91.1-4.9-209.9 46.4l-21.8-9.8s193.4-92.7 328.5-41.5c0 0 125.3 50.4 37.4 207.4 0 0-51.3 78.1-96 133.4 0 0-68.8 113.1-109.5 290.4-11.5 50.1 10.2 171.2.2 192.1-20.2 42.5-84.1 58.3-193.1 58.8-52.3.2-147.2-19.6-167.5-58.8-27.3-52.7 105.5-316.6-129.6-502.9l32.6-35.5z" class="st1"/><path d="M313.3 1833.2S68 1864.9 185.2 1647.7c0 0 101.3-164.7 328.2-275.8l-17.1-9.8s-187.9 83-327 280.7c0 0-145.2 246.5 151.3 234.3l-7.3-43.9z" class="st1"/><path d="m194.9 1578.1 33.4-37.8s-205.4-216 74-229.4c0 0 114.7-3.7 280.7 70.8 0 0 150.1 66.5 238.6 150.1l12.8-14S688 1384.2 492.1 1327.4c0 0-169.6-58.6-289.2-19.5-.1 0-177 50-8 270.2zM891.3 1578.1s104.9 109.4 67.5 203.8c0 0-27.7 87.9-198.5 75.7l18.7-46.4s105.8 8.9 151.3-50.4c0 0 35.8-73.2-48.8-169.2l9.8-13.5zM553.7 1651.7s31.7 107.6 28.7 223.1L547 1929l-14.6-62.1c-.1 0 26.1-111.5 21.3-215.2z" class="st1"/><ellipse cx="125.7" cy="1235.9" class="st1" rx="67.4" ry="68.9"/><ellipse cx="966.9" cy="1231" class="st1" rx="67.4" ry="68.9"/><path d="M696 1907.2" class="st1"/></g><g><g><circle cx="545.6" cy="1549.9" r="100.6" class="st1"/><circle cx="544.5" cy="1549.9" r="65.7" class="st1"/></g></g></g><g><g><path d="M-1068.9 378.2s98.4 104.9 270.9 99.2c0 0 6.6 103.7-17.9 196.9l28.5 87 55.3-65.1c3.2-97.1-.5-145.6-22.8-221.3 0 0 187.9-19.5 278.2-153.8 0 0 163.5-209.1-63.5-222.9 0 0-91.1-4.9-209.9 46.4l-21.8-9.8s193.4-92.7 328.5-41.5c0 0 125.3 50.4 37.4 207.4 0 0-51.3 78.1-96 133.4 0 0-68.8 113.1-109.5 290.4-11.5 50.1 10.2 171.2.2 192.1-20.2 42.5-84.1 58.3-193.1 58.8-52.3.2-147.2-19.6-167.5-58.8-27.3-52.7 105.5-316.6-129.6-502.9l32.6-35.5z" class="st2"/><path d="M-1016.4 635.2s-245.3 31.7-128.1-185.5c0 0 101.3-164.7 328.2-275.8l-17.1-9.8s-187.9 83-327 280.7c0 0-145.2 246.5 151.3 234.3l-7.3-43.9z" class="st3"/><path d="m-1134.8 380.2 33.4-37.8s-205.4-216 74-229.4c0 0 114.7-3.7 280.7 70.8 0 0 150.1 66.5 238.6 150.1l12.8-14s-146.4-133.6-342.3-190.4c0 0-169.6-58.6-289.2-19.5 0-.1-177 50-8 270.2zM-438.4 380.2s104.9 109.4 67.5 203.8c0 0-27.7 87.9-198.5 75.7l18.7-46.4s105.8 8.9 151.3-50.4c0 0 35.8-73.2-48.8-169.2l9.8-13.5zM-776 453.7s31.7 107.6 28.7 223.1l-35.4 54.2-14.6-62.1c-.1.1 26.2-111.5 21.3-215.2z" class="st3"/><ellipse cx="-1204" cy="37.9" class="st3" rx="67.4" ry="68.9"/><ellipse cx="-362.8" cy="33.1" class="st3" rx="67.4" ry="68.9"/><path d="M-633.7 709.3" class="st3"/></g><g><g><circle cx="-784.1" cy="352" r="100.6" class="st3"/><circle cx="-785.2" cy="352" r="65.7" class="st3"/></g></g></g><g><g><path d="M259 448.3s98.4 104.9 270.9 99.2c0 0 6.6 103.7-17.9 196.9l28.5 87 55.3-65.1c3.2-97.1-.5-145.6-22.8-221.3 0 0 187.9-19.5 278.2-153.8 0 0 163.5-209.1-63.5-222.9 0 0-91.1-4.9-209.9 46.4l-21.8-9.8s193.4-92.7 328.5-41.5c0 0 125.3 50.4 37.4 207.4 0 0-51.3 78.1-96 133.4 0 0-68.8 113.1-109.5 290.4-11.5 50.1 10.2 171.2.2 192.1-20.2 42.5-84.1 58.3-193.1 58.8-52.3.2-147.2-19.6-167.5-58.8-27.3-52.7 105.5-316.6-129.6-502.9l32.6-35.5z" class="st4"/><path d="M311.5 705.3S66.2 737 183.4 519.8c0 0 101.3-164.7 328.2-275.8l-17.1-9.8s-187.9 83-327 280.7c0 0-145.2 246.5 151.3 234.3l-7.3-43.9z" class="st0"/><path d="m193.1 450.3 33.4-37.8s-205.4-216 74-229.4c0 0 114.7-3.7 280.7 70.8 0 0 150.1 66.5 238.6 150.1l12.8-14S686.2 256.4 490.3 199.6c0 0-169.6-58.6-289.2-19.5-.1-.1-177 50-8 270.2zM889.5 450.3S994.4 559.7 957 654.1c0 0-27.7 87.9-198.5 75.7l18.7-46.4S883 692.3 928.5 633c0 0 35.8-73.2-48.8-169.2l9.8-13.5z" class="st0"/><path d="M551.9 523.8s31.7 107.6 28.7 223.1l-35.4 54.2-14.6-62.1c-.1.1 26.1-111.5 21.3-215.2z" class="st5"/><ellipse cx="123.9" cy="108" class="st5" rx="67.4" ry="68.9"/><ellipse cx="965" cy="103.1" class="st5" rx="67.4" ry="68.9"/><path d="M694.2 779.4" class="st0"/></g><g><g><circle cx="543.8" cy="422.1" r="100.6" class="st5"/><circle cx="542.7" cy="422.1" r="65.7" class="st3"/></g></g></g></svg>