<?xml version="1.0" encoding="UTF-8"?>
<svg version="1.1" xmlns="http://www.w3.org/2000/svg" width="512" height="512">
<path d="M0 0 C1.66425365 1.33634402 3.33001351 2.67082708 5 4 C5.81339844 3.49210937 6.62679688 2.98421875 7.46484375 2.4609375 C31.62648082 -12.2207744 60.29400905 -17.18551154 87.953125 -10.54785156 C105.03827695 -5.974965 119.6122769 2.59747727 133 14 C133.68835938 14.58394531 134.37671875 15.16789062 135.0859375 15.76953125 C151.26741968 30.77348773 162.5599025 54.94235401 164.21002197 76.77934265 C164.30957061 79.61860657 164.35535604 82.45200933 164.37109375 85.29296875 C164.38012222 86.32384109 164.3891507 87.35471344 164.39845276 88.41682434 C164.41284899 90.57725158 164.42181523 92.73772136 164.42553711 94.89819336 C164.4375092 98.19003098 164.48686388 101.48003656 164.53710938 104.77148438 C164.54656757 106.88280346 164.55380549 108.99413391 164.55859375 111.10546875 C164.58789223 112.56668404 164.58789223 112.56668404 164.61778259 114.05741882 C164.56614666 121.91519221 162.21734318 126.78265682 156.6875 132.3125 C149.88447903 136.58416433 143.94126923 137.43591186 136.09570312 137.34057617 C135.138685 137.34101425 134.18166687 137.34145233 133.19564819 137.34190369 C130.05730218 137.33982687 126.91950178 137.31654808 123.78125 137.29296875 C121.59550264 137.28736886 119.4097515 137.28310062 117.22399902 137.28010559 C111.48976118 137.26868781 105.7557537 137.23924695 100.02160645 137.20599365 C94.16287349 137.17522662 88.30410307 137.16158609 82.4453125 137.14648438 C70.96344082 137.11437437 59.48173962 137.06321512 48 137 C47.95174072 137.8760791 47.90348145 138.7521582 47.85375977 139.65478516 C47.77955811 140.81284668 47.70535645 141.9709082 47.62890625 143.1640625 C47.56002197 144.3082666 47.4911377 145.4524707 47.42016602 146.63134766 C46.4255793 154.60537876 42.39966545 160.2490824 36.55078125 165.52734375 C29.53535493 169.57759753 22.01457214 170.44239021 14.05712891 170.38095093 C13.10825617 170.3856309 12.15938343 170.39031087 11.18175697 170.39513266 C8.02987959 170.40701541 4.87844244 170.39765176 1.7265625 170.38818359 C-0.54437512 170.39225227 -2.81531076 170.39759582 -5.08624268 170.40411377 C-11.23493581 170.41775778 -17.38347746 170.41250068 -23.53217316 170.40297651 C-29.97636819 170.39536485 -36.42055053 170.40242971 -42.86474609 170.40713501 C-54.37772033 170.41293714 -65.89061733 170.40363228 -77.40357947 170.388357 C-87.82702971 170.37495507 -98.25037969 170.37728356 -108.67382812 170.39111328 C-120.79929834 170.40719386 -132.92468993 170.41313004 -145.05017281 170.40427649 C-151.46110566 170.39960688 -157.87196956 170.3989556 -164.28289795 170.40888596 C-170.31090903 170.41757148 -176.33873135 170.41150452 -182.36672211 170.39420319 C-184.57495562 170.39024685 -186.7832051 170.39135772 -188.99143219 170.39799118 C-192.01354334 170.40623041 -195.03505556 170.39585621 -198.05712891 170.38095093 C-198.9238793 170.38764309 -199.79062969 170.39433526 -200.68364525 170.40123022 C-210.34212226 170.30929518 -218.0694304 167.99378067 -225.0859375 161.25 C-229.52122842 156.03627027 -230.93441737 150.6349523 -232 144 C-233.22251465 143.99413376 -234.4450293 143.98826752 -235.70458984 143.98222351 C-247.23968424 143.92494861 -258.77459098 143.8521618 -270.30949402 143.76428509 C-276.23935582 143.71960534 -282.16914929 143.68034372 -288.09912109 143.65356445 C-293.82454402 143.6275079 -299.54970369 143.5870883 -305.27496338 143.53681374 C-307.45652994 143.52016103 -309.63814202 143.50863684 -311.81976318 143.50238609 C-314.8814233 143.49272787 -317.94241229 143.46464714 -321.00390625 143.43237305 C-322.34934761 143.43452568 -322.34934761 143.43452568 -323.7219696 143.4367218 C-330.23811261 143.33992026 -336.10054969 142.45998659 -341.2421875 138.09765625 C-341.78101563 137.42605469 -342.31984375 136.75445312 -342.875 136.0625 C-343.42929687 135.39347656 -343.98359375 134.72445312 -344.5546875 134.03515625 C-347.10459045 130.44461723 -348.2491685 127.7965786 -348.2746582 123.36181641 C-348.28419022 122.44631012 -348.29372223 121.53080383 -348.30354309 120.58755493 C-348.30263168 119.60217743 -348.30172028 118.61679993 -348.30078125 117.6015625 C-348.30506638 116.57501556 -348.3093515 115.54846863 -348.31376648 114.49081421 C-348.31951063 112.31370784 -348.32000942 110.13658228 -348.31567383 107.95947266 C-348.3125446 104.67185359 -348.33586466 101.38516203 -348.36132812 98.09765625 C-348.39548782 87.01446896 -348.18574756 76.69711475 -345 66 C-344.67140991 64.85289551 -344.67140991 64.85289551 -344.33618164 63.68261719 C-336.21088236 37.39992323 -317.62330047 16.79292387 -293.6796875 3.78125 C-268.19687875 -8.9257739 -239.34384153 -10.10529174 -212.35546875 -1.57421875 C-205.2289714 0.86264608 -198.60493501 4.4175117 -192 8 C-191.16082031 7.09121094 -191.16082031 7.09121094 -190.3046875 6.1640625 C-139.69347125 -46.72547216 -54.45385851 -45.20026164 0 0 Z M-121 -13 C-121.66402832 -12.83371094 -122.32805664 -12.66742188 -123.01220703 -12.49609375 C-144.47632228 -6.90081389 -163.22805919 4.6063966 -179 20 C-179.96486328 20.87205078 -179.96486328 20.87205078 -180.94921875 21.76171875 C-193.71731044 33.57741199 -202.7860816 50.71861702 -208.375 67 C-208.60155273 67.65000977 -208.82810547 68.30001953 -209.06152344 68.96972656 C-214.01916709 84.4688862 -214.50600639 100.02420386 -214.44604492 116.16967773 C-214.43742152 119.71980749 -214.46658799 123.26838302 -214.49804688 126.81835938 C-214.49965655 129.09114536 -214.49908585 131.36393417 -214.49609375 133.63671875 C-214.50732773 134.68985764 -214.51856171 135.74299652 -214.53013611 136.82804871 C-214.4728789 142.84466581 -214.05991295 146.43928398 -210 151 C-206.60161977 152.69919011 -202.72479167 152.15181696 -198.98551941 152.15390015 C-198.03995424 152.1582824 -197.09438907 152.16266465 -196.12017041 152.1671797 C-192.9319183 152.18060101 -189.74369384 152.186754 -186.55541992 152.19287109 C-184.277551 152.20076935 -181.99968334 152.20903813 -179.72181702 152.21765137 C-172.22471314 152.24390053 -164.72760358 152.25918057 -157.23046875 152.2734375 C-154.65321664 152.27879574 -152.07596457 152.28417324 -149.49871254 152.28956985 C-138.78170154 152.31120163 -128.06469382 152.33009153 -117.34766674 152.34119225 C-114.5660063 152.34412201 -111.7843459 152.34708366 -109.00268555 152.35009766 C-107.96561544 152.35121673 -107.96561544 152.35121673 -106.90759442 152.35235842 C-95.70453147 152.36501543 -84.5016271 152.39824278 -73.29863831 152.43989949 C-61.80066613 152.48230315 -50.30279983 152.50547763 -38.8047474 152.51111281 C-32.34737508 152.51477329 -25.89027159 152.52686897 -19.43297386 152.55921555 C-13.35988652 152.58920117 -7.28723202 152.59564181 -1.21408653 152.58383179 C1.0172232 152.58361027 3.24855247 152.59197984 5.47979355 152.60948563 C8.52191157 152.6320578 11.56244417 152.62393734 14.60456848 152.60800171 C15.49134004 152.6218838 16.3781116 152.63576588 17.29175502 152.65006864 C21.72394276 152.59270719 23.44550853 152.44235183 27.02471447 149.58699989 C29.65739981 146.13901398 30.12763706 144.52766992 30.16113281 140.26928711 C30.17074036 139.28322983 30.1803479 138.29717255 30.19024658 137.28123474 C30.19449646 136.20745071 30.19874634 135.13366669 30.203125 134.02734375 C30.20882507 132.91629776 30.21452515 131.80525177 30.22039795 130.66053772 C30.22986696 128.29575556 30.23638944 125.9309601 30.24023438 123.56616211 C30.24982064 120.00414599 30.28077498 116.44273696 30.3125 112.88085938 C30.38657375 97.15043855 29.63632987 82.11417603 24.4375 67.125 C24.06177856 66.03010254 24.06177856 66.03010254 23.6784668 64.91308594 C12.15729368 32.92456748 -11.48163717 8.52930352 -41.90380859 -6.05419922 C-66.22791893 -17.02922874 -95.14492101 -19.51345407 -121 -13 Z M18 17 C18 21.03197529 19.546611 22.3962781 21.9375 25.625 C38.68721034 49.15864321 45.39841429 75.0118526 47.07421875 103.54296875 C47.16486083 105.0450621 47.25580074 106.5471375 47.3470459 108.04919434 C47.56813257 111.69926236 47.78518379 115.34955694 48 119 C60.61265252 119.06939597 73.22525991 119.12275826 85.83806419 119.15543652 C91.69419454 119.17111747 97.55019463 119.19240003 103.40625 119.22631836 C109.05371004 119.25882519 114.7010445 119.27683469 120.34859085 119.28463173 C122.50725915 119.29019087 124.66592029 119.30104592 126.82453537 119.31719017 C129.83939418 119.33884907 132.85372873 119.34197177 135.86865234 119.34057617 C136.76848343 119.351362 137.66831451 119.36214783 138.59541321 119.3732605 C141.32171593 119.39533256 141.32171593 119.39533256 145 119 C147.45045365 115.32431953 147.32309142 112.50212657 147.3359375 108.24609375 C147.3425943 107.47177505 147.3492511 106.69745636 147.35610962 105.89967346 C147.36624598 104.25125496 147.37092633 102.60279534 147.37060547 100.9543457 C147.37489417 98.49810874 147.41095776 96.04379901 147.44921875 93.58789062 C147.5527215 79.34278595 145.81608493 64.85510578 139.25 52 C138.90855957 51.30342285 138.56711914 50.6068457 138.21533203 49.88916016 C135.20050751 43.9547161 131.44777357 38.94614989 127 34 C126.54496094 33.40445313 126.08992188 32.80890625 125.62109375 32.1953125 C113.24312173 16.15937263 92.01139626 7.44794847 72.55078125 4.47265625 C53.43986243 2.53323575 34.33112181 6.93144821 18 17 Z M-307 36 C-308.16015625 37.14082031 -308.16015625 37.14082031 -309.34375 38.3046875 C-326.26606535 55.9803936 -331.37362526 78.12024825 -331.42553711 101.90039062 C-331.43760603 104.52303997 -331.48707734 107.14345804 -331.53710938 109.765625 C-331.54655725 111.43748864 -331.55380008 113.10936653 -331.55859375 114.78125 C-331.57812607 115.56246216 -331.59765839 116.34367432 -331.61778259 117.14855957 C-331.65346338 119.60149375 -331.65346338 119.60149375 -331 123 C-326.68298063 126.75487986 -322.21746476 126.40839838 -316.8034668 126.34057617 C-315.88590103 126.34101425 -314.96833527 126.34145233 -314.02296448 126.34190369 C-310.99816412 126.33981812 -307.97392197 126.31649776 -304.94921875 126.29296875 C-302.84886477 126.28737198 -300.74850688 126.28310226 -298.64814758 126.28010559 C-293.12593736 126.26866326 -287.60396466 126.23920114 -282.08184814 126.20599365 C-276.44457207 126.17527971 -270.80725754 126.16159741 -265.16992188 126.14648438 C-254.11317701 126.11433102 -243.05660828 126.06314189 -232 126 C-231.92237679 124.3162326 -231.92237679 124.3162326 -231.84318542 122.59844971 C-231.64734248 118.38380613 -231.44385547 114.16955875 -231.23820496 109.9553833 C-231.15069024 108.14078351 -231.06517444 106.32608606 -230.98179626 104.5112915 C-229.58817985 74.26924272 -222.03094824 46.81906993 -204 22 C-238.49190832 3.04840202 -278.88801405 8.34437745 -307 36 Z " fill="#1866D2" transform="translate(348,194)"/>
<path d="M0 0 C1.58265959 1.35174697 3.14565084 2.72688254 4.6875 4.125 C5.46867188 4.82496094 6.24984375 5.52492188 7.0546875 6.24609375 C20.58265093 19.02250365 28.90017007 37.34742276 29.890625 55.9375 C30.25554083 75.43376714 25.3571056 92.34769322 13.6875 108.125 C13.22859375 108.76953125 12.7696875 109.4140625 12.296875 110.078125 C1.70863201 123.72802861 -16.56604316 133.20381354 -33.3125 136.125 C-34.01503906 136.25390625 -34.71757812 136.3828125 -35.44140625 136.515625 C-55.87593282 139.65304726 -76.69501746 134.13972079 -93.3125 122.125 C-96.83759081 119.29701691 -100.11495799 116.31687261 -103.3125 113.125 C-103.93640625 112.51269531 -104.5603125 111.90039062 -105.203125 111.26953125 C-118.52790402 97.19448314 -125.00915198 77.30702552 -124.5625 58.12890625 C-122.65899162 35.25706334 -113.2945839 15.97916093 -95.6875 1 C-67.86873481 -20.24029367 -28.16116052 -21.81620769 0 0 Z M-66.3125 5.125 C-67.15296875 5.38023438 -67.9934375 5.63546875 -68.859375 5.8984375 C-83.14349096 10.85693635 -93.9742703 21.90243289 -100.6875 35.125 C-106.97894995 48.17603149 -109.02367841 63.33495275 -104.40234375 77.390625 C-97.74201076 94.10113788 -88.79252127 105.99276596 -72.3125 114.125 C-56.28937522 120.5984179 -39.88974962 121.41088281 -23.8828125 114.68359375 C-7.71226957 107.38675637 3.08202244 95.01487814 9.66015625 78.71484375 C13.99636795 65.66587178 12.89684955 50.68263732 7.6875 38.125 C7.36007812 37.2690625 7.03265625 36.413125 6.6953125 35.53125 C0.91966515 22.20931888 -11.28929444 12.06732647 -24.3125 6.3125 C-38.21076814 0.9370884 -52.08543391 0.55485307 -66.3125 5.125 Z " fill="#1866D2" transform="translate(300.3125,14.875)"/>
<path d="M0 0 C11.01232895 10.06126418 16.5022226 24.13697275 17.96875 38.6953125 C18.61598536 54.82640911 14.30737046 69.56199217 3.53125 81.8828125 C2.0512141 83.40251436 0.5530251 84.90490839 -0.96875 86.3828125 C-1.77892578 87.22392578 -1.77892578 87.22392578 -2.60546875 88.08203125 C-13.09918177 98.15282384 -28.31054117 102.3947815 -42.46875 102.7578125 C-60.87631194 102.30377192 -75.95225295 94.96996943 -88.65625 81.7578125 C-99.56455685 68.63174114 -103.27764034 52.47651967 -102.22314453 35.77978516 C-101.06259088 24.84474124 -96.52346711 15.13225511 -89.96875 6.3828125 C-89.50855469 5.74085937 -89.04835938 5.09890625 -88.57421875 4.4375 C-79.66900767 -7.00839089 -65.21587096 -13.93733161 -51.15625 -16.2421875 C-31.40481993 -18.2815321 -15.14251245 -12.43849237 0 0 Z M-75.3359375 16.27734375 C-82.89552001 26.02522646 -85.93312518 37.15596427 -84.5625 49.3046875 C-82.48150685 60.09299408 -77.00378734 69.65818947 -68.32421875 76.453125 C-57.33593025 83.79914165 -47.05286729 85.76260373 -33.96875 84.3828125 C-22.40969285 81.90587168 -12.7985166 74.92067827 -5.96875 65.3828125 C-0.30208824 55.13220103 1.76581382 44.84664801 -0.6171875 33.21875 C-3.95363635 22.18280382 -10.33384102 12.81081302 -20.38671875 6.98046875 C-39.78786425 -3.14569645 -60.30102335 0.43823651 -75.3359375 16.27734375 Z " fill="#1866D2" transform="translate(452.96875,67.6171875)"/>
<path d="M0 0 C8.19268401 7.55169162 13.79918372 16.81683667 17.3125 27.3125 C17.67988281 28.36244141 17.67988281 28.36244141 18.0546875 29.43359375 C22.23466215 44.12076496 19.34844945 60.53021575 12.75 73.9375 C4.31010414 88.26422322 -8.04509657 97.69322884 -23.93359375 102.62109375 C-40.36287569 106.74589219 -57.46688065 104.71594533 -72.125 96.078125 C-76.72390933 92.9093643 -80.73777324 89.24827013 -84.6875 85.3125 C-85.25210938 84.77109375 -85.81671875 84.2296875 -86.3984375 83.671875 C-96.49245398 73.09719106 -101.00688761 57.64366359 -100.78076172 43.32641602 C-100.00647485 26.60627888 -93.18866436 11.82748856 -80.9921875 0.30859375 C-57.42221265 -20.10540141 -24.04470072 -18.73828401 0 0 Z M-73 17.625 C-80.94246617 27.63745735 -83.63371236 38.72637364 -82.6875 51.3125 C-80.88073807 61.84941411 -75.04201745 71.64593608 -66.6875 78.3125 C-55.45316554 85.75473962 -44.13153338 88.73953086 -30.7734375 86.1640625 C-19.76109852 83.12521453 -10.45487486 77.08198848 -4.375 67.375 C1.2995983 57.12063078 4.01171927 46.58257307 1.15625 34.87890625 C-2.72275985 23.0802513 -9.0021739 14.10222546 -20.0703125 8.2512207 C-38.43381053 -0.9809511 -58.87503639 2.38585351 -73 17.625 Z " fill="#1866D2" transform="translate(141.6875,69.6875)"/>
</svg>
